<svg fill="#000000" height="100px" width="100px" version="1.1" id="Icons" xmlns="http://www.w3.org/2000/svg" xmlns:xlink="http://www.w3.org/1999/xlink" viewBox="0 0 32 32" xml:space="preserve"><g id="SVGRepo_bgCarrier" stroke-width="0"></g><g id="SVGRepo_tracerCarrier" stroke-linecap="round" stroke-linejoin="round"></g><g id="SVGRepo_iconCarrier"> <path d="M29.3,22.8L29.3,22.8l-3.9-4.7C24.8,17.4,24,17,23.1,17H8.9c-0.9,0-1.7,0.4-2.3,1.1l-3.9,4.7C2.2,23.3,2,24,2,24.7V27 c0,1.7,1.3,3,3,3h22c1.7,0,3-1.3,3-3v-2.3C30,24,29.8,23.3,29.3,22.8z M8.2,19.4C8.4,19.1,8.6,19,8.9,19h14.1c0.3,0,0.6,0.1,0.8,0.4 l3,3.6H5.1L8.2,19.4z"></path> <g> <path d="M16.4,1.1c-0.3-0.1-0.6-0.1-0.9,0l-5.9,3L16,6.9l6.4-2.8L16.4,1.1z"></path> <path d="M9,12c0,0.4,0.2,0.7,0.6,0.9l5.4,2.7v-7L9,6V12z"></path> <path d="M17,8.6v7l5.4-2.7c0.3-0.2,0.6-0.5,0.6-0.9V6L17,8.6z"></path> </g> </g></svg>