<svg xmlns="http://www.w3.org/2000/svg" width="80" height="80" viewBox="0 0 26 26"><g transform="translate(0 -1026.362)"><circle cx="13" cy="1039.362" r="13" fill="#3DCFD3"/><path fill="#12dae0" style="line-height:normal;text-indent:0;text-align:start;text-decoration-line:none;text-decoration-style:solid;text-decoration-color:#000;text-transform:none;block-progression:tb;isolation:auto;mix-blend-mode:normal" d="M 13.134766 25.996094 A 12.999996 12.999996 0 0 0 13.919922 25.966797 A 12.999996 12.999996 0 0 0 15.208984 25.810547 A 12.999996 12.999996 0 0 0 16.476562 25.525391 A 12.999996 12.999996 0 0 0 17.710938 25.117188 A 12.999996 12.999996 0 0 0 18.896484 24.585938 A 12.999996 12.999996 0 0 0 20.023438 23.939453 A 12.999996 12.999996 0 0 0 21.080078 23.183594 A 12.999996 12.999996 0 0 0 22.056641 22.326172 A 12.999996 12.999996 0 0 0 22.943359 21.375 A 12.999996 12.999996 0 0 0 23.728516 20.339844 A 12.999996 12.999996 0 0 0 24.408203 19.232422 A 12.999996 12.999996 0 0 0 24.974609 18.0625 A 12.999996 12.999996 0 0 0 25.419922 16.841797 A 12.999996 12.999996 0 0 0 25.732422 15.615234 L 16.058594 5.9414062 C 15.786407 5.6692063 15.411252 5.5 15 5.5 C 14.897187 5.5 14.79646 5.5111182 14.699219 5.53125 C 14.407494 5.5916455 14.145546 5.7372656 13.941406 5.9414062 C 13.669219 6.2135938 13.5 6.58875 13.5 7 C 13.5 7.1627554 13.533112 7.3175832 13.582031 7.4648438 L 12.058594 5.9414062 C 11.786407 5.6692063 11.411252 5.5 11 5.5 C 10.177495 5.5 9.5 6.1775 9.5 7 C 9.5 7.2417 9.564433 7.4667219 9.6679688 7.6699219 L 6.7421875 10.5 L 6 10.5 A 0.50004997 0.50004997 0 0 0 5.5 11 L 5.5 13 A 0.50004997 0.50004997 0 0 0 6 13.5 L 6.5 14 L 6.5 18.5 C 6.5 18.63914 6.5147787 18.77594 6.5410156 18.908203 C 6.5487828 18.947268 6.5643072 18.983206 6.5742188 19.021484 C 6.5970852 19.109935 6.6205644 19.197739 6.6542969 19.28125 C 6.6783074 19.340716 6.7110671 19.394661 6.7402344 19.451172 C 6.770618 19.510058 6.7963742 19.571693 6.8320312 19.626953 C 6.8648606 19.677827 6.9043777 19.722076 6.9414062 19.769531 C 6.9841209 19.824273 7.0243341 19.879971 7.0722656 19.929688 C 7.0806004 19.938334 7.0872176 19.948545 7.0957031 19.957031 L 13.134766 25.996094 z " color="#000" font-family="sans-serif" font-weight="400" transform="translate(0 1026.362)"/><path fill="#fff" style="line-height:normal;text-indent:0;text-align:start;text-decoration-line:none;text-decoration-style:solid;text-decoration-color:#000;text-transform:none;block-progression:tb;isolation:auto;mix-blend-mode:normal" d="m 6.5,0.9921875 c -0.8225048,0 -1.5,0.6775 -1.5,1.5 0,0.2417497 0.064433,0.4667461 0.1679688,0.6699219 l -2.9257813,2.8300781 -0.7421875,0 a 0.50004997,0.50004997 0 0 0 -0.5,0.5 l 0,2 a 0.50004997,0.50004997 0 0 0 0.5,0.5 l 0.5,0 0,5.0000005 c 0,1.0787 0.8268927,2 1.8847656,2 l 9.2304684,0 c 1.057873,0 1.884766,-0.9213 1.884766,-2 l 0,-5.0000005 0.5,0 a 0.50004997,0.50004997 0 0 0 0.5,-0.5 l 0,-2 a 0.50004997,0.50004997 0 0 0 -0.5,-0.5 l -0.794922,0 -2.865234,-2.84375 C 11.938968,2.948772 12,2.7283756 12,2.4921875 c 0,-0.8225 -0.677495,-1.5 -1.5,-1.5 -0.8225048,0 -1.5,0.6775 -1.5,1.5 0,0.8225 0.6774952,1.5 1.5,1.5 0.223629,0 0.435465,-0.053115 0.626953,-0.1425781 l 2.160156,2.1425781 -9.6074215,0 2.2089844,-2.1347656 C 6.075995,3.9422708 6.2825747,3.9921875 6.5,3.9921875 c 0.8225048,0 1.5,-0.6775 1.5,-1.5 0,-0.8225 -0.6774952,-1.5 -1.5,-1.5 z m 0,1 c 0.2820647,0 0.5,0.218 0.5,0.5 0,0.2821 -0.2179353,0.5 -0.5,0.5 -0.2820647,0 -0.5,-0.2179 -0.5,-0.5 0,-0.282 0.2179353,-0.5 0.5,-0.5 z m 4,0 c 0.282065,0 0.5,0.218 0.5,0.5 0,0.2821 -0.217935,0.5 -0.5,0.5 -0.282065,0 -0.5,-0.2179 -0.5,-0.5 0,-0.282 0.217935,-0.5 0.5,-0.5 z m -8.5,5 1,0 0,1 -1,0 0,-1 z m 2,0 1,0 0,1 -1,0 0,-1 z m 2,0 1,0 0,1 -1,0 0,-1 z m 2,0 1,0 0,1 -1,0 0,-1 z m 2,0 1,0 0,1 -1,0 0,-1 z m 2,0 1,0 0,1 -1,0 0,-1 z m 2,0 0.388672,0 a 0.50005,0.50005 0 0 0 0.261719,0 l 0.349609,0 0,1 -1,0 0,-1 z m -11,2.0351563 11,0 0,4.9648442 c 0,0.5833 -0.408361,1 -0.884766,1 l -9.2304684,0 C 3.4083606,14.992188 3,14.575488 3,13.992188 L 3,9.0273438 Z" color="#000" font-family="sans-serif" font-weight="400" overflow="visible" transform="translate(4.5 1030.87)"/></g></svg>