<svg xmlns="http://www.w3.org/2000/svg" xmlns:xlink="http://www.w3.org/1999/xlink" width="80" height="80" viewBox="0 0 64 64"><defs><path id="a" d="M.06 64V.04H64V64z"/></defs><g fill="none" fill-rule="evenodd"><mask id="b" fill="#fff"><use xlink:href="#a"/></mask><path fill="#3DCFD3" d="M64 32c0 17.673-14.327 32-32 32C14.327 64 0 49.673 0 32 0 14.327 14.327 0 32 0c17.673 0 32 14.327 32 32" mask="url(#b)"/><path fill="#629986" d="M43.96 52c-.773 0-1.646-.372-2.348-1.074L31.378 40.692c.442-.271.91-.589 1.406-.958l5.293 5.293 2.078-2.078-5.097-5.098 5.097 5.098 4.157-4.157-5.104-5.104 5.104 5.104.897-.897 4.717 4.718c1.172 1.171 1.424 2.819.563 3.68l-5.196 5.196c-.346.345-.817.511-1.333.511M25.308 34.622l-6.798-6.798-4.328-12.642 8.774 3.004-3.782 3.782 8.975 8.974-7.56-7.56-2.079 2.078 7.757 7.756c-.37.496-.688.964-.959 1.406m7.005-7.83l-8.216-8.215.966.331-.317.317 7.567 7.567"/><path fill="#B85756" d="M37.37 44.32c-1.172-1.172-1.424-2.819-.563-3.68l5.196-5.196c.861-.861 2.509-.61 3.68.562l4.243 4.243c1.172 1.171 1.424 2.819.563 3.68l-5.196 5.196c-.861.861-2.509.609-3.681-.563L37.37 44.32"/><path fill="#D5915B" d="M24.746 19.225l2.078-2.078 19.567 19.566-2.079 2.079-19.566-19.567M19.174 21.968l4.157-4.157 20.981 20.981-4.157 4.157-20.981-20.981"/><path fill="#D5915B" d="M18.51 25.46l2.079-2.078 19.566 19.567-2.078 2.078L18.51 25.46"/><path fill="#4C5665" d="M14.182 12.818l1.443 4.214 2.771-2.771-4.214-1.443"/><path fill="#F0CB83" d="M26.824 17.147l-8.428-2.886-2.771 2.771 2.885 8.428 1.039-1.039 2.454.375-.75-4.907 4.907.75-.375-2.453 1.039-1.039"/><path fill="#629986" d="M18.336 50.739c-2.788-.001-5.284-.697-6.336-1.749 3-1.99 3.733-4.784 4.495-7.015.395-1.161.925-2.234 1.893-3.202 1.351-1.351 3.329-2.115 5.24-2.115.226 0 .451.011.674.033.21-.62.538-1.306 1.006-2.069l6.07 6.07c-.768.472-1.459.801-2.082 1.011a7.619 7.619 0 0 1-.925 4.38 6.916 6.916 0 0 1-1.144 1.529c-2.246 2.246-5.754 3.127-8.891 3.127"/><path fill="#568071" d="M31.378 40.692l-6.07-6.07c.271-.442.589-.91.959-1.406l6.517 6.518c-.496.369-.964.687-1.406.958"/><path fill="#629986" d="M41.159 31.481l-6.64-6.64c5.57-4.762 11.9-9.001 14.466-9.001.382 0 .68.094.88.294 1.545 1.545-3.236 8.948-8.706 15.347"/><path fill="#568071" d="M35.058 37.851l-6.909-6.909 6.909 6.909m4.15-4.163l-6.895-6.896 6.895 6.896"/><path fill="#AE7A51" d="M39.208 33.688l-6.895-6.896a85.056 85.056 0 0 1 2.206-1.951l6.64 6.64a88.564 88.564 0 0 1-1.951 2.207"/><path fill="#AE7A51" d="M35.058 37.851l-6.909-6.909a51.711 51.711 0 0 1 1.842-1.933c.73-.731 1.51-1.474 2.322-2.217l6.895 6.896a73.714 73.714 0 0 1-2.217 2.321 51.711 51.711 0 0 1-1.933 1.842"/><path fill="#AE7A51" d="M32.784 39.734l-6.517-6.518a31.72 31.72 0 0 1 1.882-2.274l6.909 6.909a32.024 32.024 0 0 1-2.274 1.883"/><path fill="#F0CB83" d="M29.991 27.009c-6.834 6.834-6.807 9.941-4.874 11.874 1.933 1.933 5.04 1.96 11.874-4.874 6.834-6.834 14.807-17.941 12.874-19.874-1.933-1.933-13.04 6.04-19.874 12.874"/><path fill="#B85756" d="M12 46.99c2.236 2.236 10.984 2.864 15.227-1.378a6.916 6.916 0 0 0 1.144-1.529c-6.637-.198-10.145-2.408-11.876-4.108C15.733 42.206 15 45 12 46.99"/><path fill="#4C5665" d="M27.757 36.243c-2.44-2.441-6.928-1.911-9.369.53-.968.968-1.498 2.041-1.893 3.202 1.731 1.7 5.13 6.942 11.876 4.108 1.39-2.493 1.379-5.848-.614-7.84"/><path fill="#B85756" d="M16.495 39.975s4.021-.764 5.938 2.059c1.917 2.823 5.938 2.049 5.938 2.049l-5.204 2.875-5.209-3.791-1.463-3.192"/></g></svg>