<svg xmlns="http://www.w3.org/2000/svg" width="80" height="80" viewBox="0 0 48 48"><g transform="translate(0 -1004.362)"><circle cx="24" cy="1028.362" r="24" fill="#3DCFD3" fill-rule="evenodd"/><g transform="translate(225 -423)"><g transform="translate(-58 -5)"><path fill="#f0f4f7" d="m -154.99998,1443.3622 22.99996,0 c 0.55401,0 1.00002,0.446 1.00002,1 l 0,21 c 0,0.554 -0.44601,1 -1.00002,1 l -22.99996,0 c -0.55401,0 -1.00002,-0.446 -1.00002,-1 l 0,-21 c 0,-0.554 0.44601,-1 1.00002,-1 z"/><path fill="#0c5286" d="m -154.99998,1443.3622 22.99996,0 c 0.55401,0 1.00002,0.446 1.00002,1 l 0,4 -25,0 0,-4 c 0,-0.554 0.44601,-1 1.00002,-1 z"/><path fill="#ee7581" d="m -133,1445.8622 a 0.5,0.5 0 0 1 -0.5,0.5 0.5,0.5 0 0 1 -0.5,-0.5 0.5,0.5 0 0 1 0.5,-0.5 0.5,0.5 0 0 1 0.5,0.5 z"/><path fill="#8fb6d7" d="M-135 1445.8622a.5.5 0 0 1-.5.5.5.5 0 0 1-.5-.5.5.5 0 0 1 .5-.5.5.5 0 0 1 .5.5zM-137 1445.8622a.5.5 0 0 1-.5.5.5.5 0 0 1-.5-.5.5.5 0 0 1 .5-.5.5.5 0 0 1 .5.5z"/></g><path fill="#f9b536" style="isolation:auto;mix-blend-mode:normal" d="m -186,1458.7713 -1.2209,0 a 4.9090888,4.9090889 0 0 0 -0.6243,-1.5213 l 0.8587,-0.8586 -1.5427,-1.5427 -0.8608,0.8609 a 4.9090888,4.9090889 0 0 0 -1.5191,-0.6286 l 0,-1.2188 -2.1818,0 0,1.2209 a 4.9090888,4.9090889 0 0 0 -1.5213,0.6243 l -0.8587,-0.8587 -1.5427,1.5427 0.8609,0.8607 a 4.9090888,4.9090889 0 0 0 -0.6285,1.5192 l -1.2188,0 0,2.1818 1.2208,0 a 4.9090888,4.9090889 0 0 0 0.6243,1.5213 l -0.8587,0.8587 1.5427,1.5426 0.8608,-0.8608 a 4.9090888,4.9090889 0 0 0 1.5192,0.6286 l 0,1.2187 2.1818,0 0,-1.2208 a 4.9090888,4.9090889 0 0 0 1.5212,-0.6243 l 0.8587,0.8586 1.5427,-1.5426 -0.8609,-0.8608 a 4.9090888,4.9090889 0 0 0 0.6286,-1.5192 l 1.2188,0 0,-2.1818 z" color="#000" overflow="visible"/><path fill="#f0f4f7" stroke="#0c5286" stroke-linecap="round" stroke-linejoin="round" d="m -190,1459.8622 c 0,-1.099 -0.9003,-1.9995 -1.9995,-1.9995 -1.099,0 -2.0005,0.9005 -2.0005,1.9995 0,1.0991 0.9015,1.9995 2.0005,1.9995 1.0992,0 1.9995,-0.9004 1.9995,-1.9995 z" color="#000" font-family="sans-serif" font-weight="400" overflow="visible" style="line-height:normal;text-indent:0;text-align:start;text-decoration-line:none;text-decoration-style:solid;text-decoration-color:#000;text-transform:none;block-progression:tb;isolation:auto;mix-blend-mode:normal"/><path fill="#f9b536" d="m -200,1459.9663 -0.8393,0 a 3.375012,3.3750124 0 0 0 -0.4292,-1.0458 l 0.5903,-0.5904 -1.0606,-1.0605 -0.5918,0.5918 a 3.375012,3.3750124 0 0 0 -1.0444,-0.4322 l 0,-0.8379 -1.5,0 0,0.8394 a 3.375012,3.3750124 0 0 0 -1.0459,0.4292 l -0.5903,-0.5903 -1.0606,1.0605 0.5918,0.5918 a 3.375012,3.3750124 0 0 0 -0.4321,1.0444 l -0.8379,0 0,1.5001 0.8393,0 a 3.375012,3.3750124 0 0 0 0.4292,1.0458 l -0.5903,0.5904 1.0606,1.0605 0.5917,-0.5918 a 3.375012,3.3750124 0 0 0 1.0445,0.4322 l 0,0.8379 1.5,0 0,-0.8394 a 3.375012,3.3750124 0 0 0 1.0459,-0.4292 l 0.5903,0.5903 1.0606,-1.0605 -0.5919,-0.5918 a 3.375012,3.3750124 0 0 0 0.4322,-1.0444 l 0.8379,0 0,-1.5001 z" color="#000" overflow="visible" style="isolation:auto;mix-blend-mode:normal"/><path fill="#f0f4f7" stroke="#0c5286" stroke-linecap="round" stroke-linejoin="round" d="m -202.9789,1460.7164 c 0,-0.6299 -0.516,-1.1459 -1.1459,-1.1459 -0.6298,0 -1.1463,0.516 -1.1463,1.1459 0,0.6298 0.5165,1.1458 1.1463,1.1458 0.6299,0 1.1459,-0.516 1.1459,-1.1458 z" color="#000" font-family="sans-serif" font-weight="400" overflow="visible" style="line-height:normal;text-indent:0;text-align:start;text-decoration-line:none;text-decoration-style:solid;text-decoration-color:#000;text-transform:none;block-progression:tb;isolation:auto;mix-blend-mode:normal"/><path fill="none" stroke="#2dbca4" stroke-linecap="round" stroke-linejoin="round" d="m -203.9963,1453.8561 4.9926,-7.9881"/><path fill="none" stroke="#2dbca4" stroke-linecap="round" stroke-linejoin="round" d="M7.5050501 1034.8672l2.9898999 2.9899M7.5050501 1034.857l2.9898999-2.9899" transform="translate(-216.5 415)"/><path fill="none" stroke="#2dbca4" stroke-linecap="round" stroke-linejoin="round" d="M7.5050501 1035.8673l2.9898999 2.9899M7.5050501 1035.8571l2.9898999-2.9899" transform="matrix(-1 0 0 1 -186.5 414)"/></g></g></svg>