<svg xmlns="http://www.w3.org/2000/svg" width="80" height="80" viewBox="0 0 48 48"><g fill="#fff" transform="translate(8.5 -1012.362)"><circle cx="15.5" cy="1036.362" r="24" fill="#3DCFD3" fill-rule="evenodd"/><path fill="#12dae0" style="line-height:normal;text-indent:0;text-align:start;text-decoration-line:none;text-decoration-style:solid;text-decoration-color:#000;text-transform:none;block-progression:tb;isolation:auto;mix-blend-mode:normal" d="M 28.136719 47.638672 A 24 24 0 0 0 30.419922 47.125 A 24 24 0 0 0 32.697266 46.369141 A 24 24 0 0 0 34.886719 45.388672 A 24 24 0 0 0 36.966797 44.195312 A 24 24 0 0 0 38.917969 42.800781 A 24 24 0 0 0 40.720703 41.216797 A 24 24 0 0 0 42.355469 39.460938 A 24 24 0 0 0 43.808594 37.550781 A 24 24 0 0 0 45.0625 35.505859 A 24 24 0 0 0 46.105469 33.345703 A 24 24 0 0 0 46.927734 31.091797 A 24 24 0 0 0 47.521484 28.767578 A 24 24 0 0 0 47.880859 26.396484 A 24 24 0 0 0 47.880859 26.380859 L 37 15.5 A 0.50005003 0.50005003 0 0 0 36.5 15 L 26.5 15 A 0.50005003 0.50005003 0 0 0 26 15.5 L 26 22.5 L 23.998047 20.5 A 0.50005006 0.50005006 0 0 0 23.498047 20 L 10.498047 20 A 0.50005006 0.50005006 0 0 0 9.9980469 20.5 L 9.9980469 29.5 A 0.50005006 0.50005006 0 0 0 10.498047 30 L 28.136719 47.638672 z " color="#000" font-family="sans-serif" font-weight="400" transform="translate(-8.5 1012.362)"/><path style="line-height:normal;text-indent:0;text-align:start;text-decoration-line:none;text-decoration-style:solid;text-decoration-color:#000;text-transform:none;block-progression:tb;isolation:auto;mix-blend-mode:normal" d="M 19.5,7 A 0.50005003,0.50005003 0 0 0 19,7.5 l 0,17 a 0.50005003,0.50005003 0 0 0 0.5,0.5 l 10,0 A 0.50005003,0.50005003 0 0 0 30,24.5 l 0,-17 A 0.50005003,0.50005003 0 0 0 29.5,7 l -10,0 z m 0.5,1 9,0 0,16 -9,0 0,-16 z m 1.5,1 A 0.50005006,0.50005006 0 0 0 21,9.5 l 0,3 a 0.50005006,0.50005006 0 0 0 0.5,0.5 l 6,0 A 0.50005006,0.50005006 0 0 0 28,12.5 l 0,-3 A 0.50005006,0.50005006 0 0 0 27.5,9 l -6,0 z m 0.5,1 5,0 0,2 -5,0 0,-2 z M 3.4980469,12 a 0.50005006,0.50005006 0 0 0 -0.5,0.5 l 0,9 a 0.50005006,0.50005006 0 0 0 0.5,0.5 l 4.5,0 0,2 -0.9492188,0 0,1 5.9999999,0 0,-1 -1.050781,0 0,-2 4.5,0 a 0.50005006,0.50005006 0 0 0 0.5,-0.5 l 0,-9 a 0.50005006,0.50005006 0 0 0 -0.5,-0.5 L 3.4980469,12 Z m 0.5,1 12.0000001,0 0,8 -12.0000001,0 0,-8 z M 21.5,14 A 0.50005006,0.50005006 0 0 0 21,14.5 l 0,2 a 0.50005006,0.50005006 0 0 0 0.5,0.5 l 6,0 A 0.50005006,0.50005006 0 0 0 28,16.5 l 0,-2 A 0.50005006,0.50005006 0 0 0 27.5,14 l -6,0 z m 0.5,1 5,0 0,1 -5,0 0,-1 z m 1.998047,4 0,1.65625 C 23.706863,20.832382 23.5,21.139641 23.5,21.5 c 0,0.5464 0.453707,1 1,1 0.546293,0 1,-0.4536 1,-1 0,-0.361894 -0.208729,-0.670054 -0.501953,-0.845703 l 0,-1.654297 -1,0 z m -15.0000001,3 2.0000001,0 0,2 -2.0000001,0 0,-2 z" color="#000" font-family="sans-serif" font-weight="400" overflow="visible" transform="translate(-1.5 1020.362)"/></g></svg>