<svg xmlns="http://www.w3.org/2000/svg" width="80" height="80" viewBox="0 0 26 26"><g transform="translate(0 -1026.362)"><circle cx="13" cy="1039.362" r="13" fill="#3DCFD3" fill-rule="evenodd"/><path fill="#12dae0" style="line-height:normal;text-indent:0;text-align:start;text-decoration-line:none;text-decoration-style:solid;text-decoration-color:#000;text-transform:none;block-progression:tb;isolation:auto;mix-blend-mode:normal" d="M 15.621094 25.71875 A 12.999996 12.999996 0 0 0 16.476562 25.525391 A 12.999996 12.999996 0 0 0 17.710938 25.117188 A 12.999996 12.999996 0 0 0 18.896484 24.585938 A 12.999996 12.999996 0 0 0 20.023438 23.939453 A 12.999996 12.999996 0 0 0 21.080078 23.183594 A 12.999996 12.999996 0 0 0 22.056641 22.326172 A 12.999996 12.999996 0 0 0 22.943359 21.375 A 12.999996 12.999996 0 0 0 23.728516 20.339844 A 12.999996 12.999996 0 0 0 24.408203 19.232422 A 12.999996 12.999996 0 0 0 24.974609 18.0625 A 12.999996 12.999996 0 0 0 25.419922 16.841797 A 12.999996 12.999996 0 0 0 25.740234 15.582031 A 12.999996 12.999996 0 0 0 25.935547 14.296875 A 12.999996 12.999996 0 0 0 26 13 A 12.999996 12.999996 0 0 0 25.966797 12.080078 A 12.999996 12.999996 0 0 0 25.951172 11.951172 L 20 6 L 6 6 L 6 6.5 L 6 16 L 10.609375 20.609375 L 10.900391 20.998047 L 15.621094 25.71875 z " color="#000" font-family="sans-serif" font-weight="400" transform="translate(0 1026.362)"/><path fill="#fff" style="line-height:normal;text-indent:0;text-align:start;text-decoration-line:none;text-decoration-style:solid;text-decoration-color:#000;text-transform:none;block-progression:tb;isolation:auto;mix-blend-mode:normal" d="m 1,1 0,0.5 0,9.5 6.5,0 0,2.546875 -1.8007812,1.351563 -0.3984376,0.298828 0.5996094,0.800781 L 6.3007812,15.697266 7.5,14.796875 7.5,15.5 l 0,0.5 1,0 0,-0.5 0,-0.703125 1.1992188,0.900391 0.4003902,0.300781 0.59961,-0.800781 L 10.300781,14.898438 8.5,13.546875 8.5,11 15,11 15,1 1,1 Z m 1,1 12,0 0,8 -12,0 0,-8 z m 5.015625,1.6113281 0,0.8886719 0,3.8886719 L 10.949219,6 7.015625,3.6113281 Z m 1,1.7773438 1.0078125,0.6132812 -1.0078125,0.6113281 0,-1.2246093 z" color="#000" font-family="sans-serif" font-weight="400" overflow="visible" transform="translate(5 1031.362)"/></g></svg>