<svg xmlns="http://www.w3.org/2000/svg" width="80" height="80" viewBox="0 0 26 26"><g transform="translate(0 -1026.362)"><circle cx="13" cy="1039.362" r="13" fill="#3DCFD3" fill-rule="evenodd"/><path fill="#12dae0" style="line-height:normal;text-indent:0;text-align:start;text-decoration-line:none;text-decoration-style:solid;text-decoration-color:#000;text-transform:none;block-progression:tb;isolation:auto;mix-blend-mode:normal" d="M 14.119141 25.943359 A 12.999996 12.999996 0 0 0 15.208984 25.810547 A 12.999996 12.999996 0 0 0 16.476562 25.525391 A 12.999996 12.999996 0 0 0 17.710938 25.117188 A 12.999996 12.999996 0 0 0 18.896484 24.585938 A 12.999996 12.999996 0 0 0 20.023438 23.939453 A 12.999996 12.999996 0 0 0 21.080078 23.183594 A 12.999996 12.999996 0 0 0 22.056641 22.326172 A 12.999996 12.999996 0 0 0 22.943359 21.375 A 12.999996 12.999996 0 0 0 23.728516 20.339844 A 12.999996 12.999996 0 0 0 24.408203 19.232422 A 12.999996 12.999996 0 0 0 24.974609 18.0625 A 12.999996 12.999996 0 0 0 25.419922 16.841797 A 12.999996 12.999996 0 0 0 25.740234 15.582031 A 12.999996 12.999996 0 0 0 25.935547 14.296875 A 12.999996 12.999996 0 0 0 25.943359 14.119141 L 17.412109 5.5878906 C 17.04953 5.2253906 16.549671 5 16 5 L 10 5 C 8.9006421 5 8 5.9007 8 7 L 8 19 C 8 19.5497 8.2253164 20.049509 8.5878906 20.412109 L 14.119141 25.943359 z " color="#000" font-family="sans-serif" font-weight="400" transform="translate(0 1026.362)"/><path fill="#fff" style="line-height:normal;text-indent:0;text-align:start;text-decoration-line:none;text-decoration-style:solid;text-decoration-color:#000;text-transform:none;block-progression:tb;isolation:auto;mix-blend-mode:normal" d="M 5,0 C 3.9006421,0 3,0.9007 3,2 l 0,12 c 0,1.0994 0.9006421,2 2,2 l 6,0 c 1.099357,0 2,-0.9006 2,-2 L 13,2 C 13,0.9007 12.099357,0 11,0 L 5,0 Z m 0,1 6,0 c 0.562661,0 1,0.4374 1,1 L 12,4 4,4 4,2 C 4,1.4374 4.4373387,1 5,1 Z M 7,2 7,3 9,3 9,2 7,2 Z m -3,3 8,0 0,6 -8,0 0,-6 z m 0,7 8,0 0,2 c 0,0.5627 -0.437339,1 -1,1 L 5,15 C 4.4373387,15 4,14.5627 4,14 l 0,-2 z m 4,0.75 A 0.75,0.75 0 0 0 7.25,13.5 0.75,0.75 0 0 0 8,14.25 0.75,0.75 0 0 0 8.75,13.5 0.75,0.75 0 0 0 8,12.75 Z" color="#000" font-family="sans-serif" font-weight="400" overflow="visible" transform="translate(5 1031.362)"/></g></svg>