<svg version="1.1" id="Layer_1" xmlns="http://www.w3.org/2000/svg" xmlns:xlink="http://www.w3.org/1999/xlink" viewBox="0 0 512 512" xml:space="preserve" width="100px" height="100px" fill="#000000"><g id="SVGRepo_bgCarrier" stroke-width="0"></g><g id="SVGRepo_tracerCarrier" stroke-linecap="round" stroke-linejoin="round"></g><g id="SVGRepo_iconCarrier"> <circle style="fill:#71E2EF;" cx="256" cy="256" r="256"></circle> <path style="fill:#38C6D9;" d="M511.888,263.33L392.092,143.534l-74.807,79.193l-106.479-106.48L170.379,251.53h31.173 l46.073,44.941l31.189,31.189l-192.05,79.334l93.662,93.662C204.314,508.026,229.691,512,256,512 C394.933,512,508.007,401.324,511.888,263.33z"></path> <path style="fill:#273B7A;" d="M398.222,398.222H243.071v-241.65c0-9.352,7.582-16.936,16.936-16.936h121.282 c9.352,0,16.936,7.582,16.936,16.936v241.65H398.222z"></path> <path style="fill:#121149;" d="M398.222,156.572c0-9.354-7.582-16.936-16.936-16.936H319.21v258.586h79.012V156.572z"></path> <g> <rect x="263.758" y="170.667" style="fill:#C8EBED;" width="113.778" height="28.444"></rect> <rect x="263.758" y="208.593" style="fill:#C8EBED;" width="113.778" height="28.444"></rect> <rect x="263.758" y="284.444" style="fill:#C8EBED;" width="113.778" height="28.444"></rect> <rect x="263.758" y="246.519" style="fill:#C8EBED;" width="113.778" height="28.444"></rect> </g> <rect x="319.216" y="170.667" style="fill:#71E2EF;" width="58.325" height="28.444"></rect> <rect x="263.758" y="208.593" style="fill:#C8EBED;" width="55.458" height="28.444"></rect> <g> <rect x="319.216" y="208.593" style="fill:#71E2EF;" width="58.325" height="28.444"></rect> <rect x="319.216" y="284.444" style="fill:#71E2EF;" width="58.325" height="28.444"></rect> </g> <g> <rect x="263.758" y="284.444" style="fill:#C8EBED;" width="55.458" height="28.444"></rect> <rect x="263.758" y="246.519" style="fill:#C8EBED;" width="55.458" height="28.444"></rect> </g> <rect x="319.216" y="246.519" style="fill:#71E2EF;" width="58.325" height="28.444"></rect> <path style="fill:#273B7A;" d="M217.212,398.222H113.778V128.281c0-8.011,6.492-14.503,14.502-14.503h74.43 c8.009,0,14.503,6.492,14.503,14.503L217.212,398.222L217.212,398.222z"></path> <path style="fill:#121149;" d="M217.212,128.279c0-8.009-6.492-14.502-14.501-14.502h-37.79v284.444h52.291V128.279z"></path> <path style="fill:#FFC61B;" d="M321.488,398.222H210.806V207.977c0-6.997,5.673-12.671,12.671-12.671h85.34 c6.997,0,12.671,5.673,12.671,12.671V398.222z"></path> <path style="fill:#EAA22F;" d="M321.488,207.977c0-6.997-5.673-12.671-12.671-12.671h-44.772v202.916h57.444V207.977H321.488z"></path> <rect x="226.711" y="212.471" style="fill:#FF5419;" width="28.444" height="28.444"></rect> <rect x="277.135" y="212.471" style="fill:#C92F00;" width="28.444" height="28.444"></rect> <rect x="226.711" y="254.707" style="fill:#FF5419;" width="28.444" height="28.444"></rect> <rect x="277.135" y="254.707" style="fill:#C92F00;" width="28.444" height="28.444"></rect> <rect x="226.711" y="296.943" style="fill:#FF5419;" width="28.444" height="28.444"></rect> <rect x="277.135" y="296.943" style="fill:#C92F00;" width="28.444" height="28.444"></rect> <rect x="125.931" y="132.948" style="fill:#FEE187;" width="31.434" height="21.175"></rect> <rect x="173.615" y="132.948" style="fill:#FFC61B;" width="31.434" height="21.175"></rect> <rect x="125.931" y="164.443" style="fill:#FEE187;" width="31.434" height="21.175"></rect> <rect x="173.615" y="164.443" style="fill:#FFC61B;" width="31.434" height="21.175"></rect> <rect x="125.931" y="195.939" style="fill:#FEE187;" width="31.434" height="21.175"></rect> <rect x="173.615" y="195.939" style="fill:#FFC61B;" width="31.434" height="21.175"></rect> <rect x="125.931" y="227.435" style="fill:#FEE187;" width="31.434" height="21.175"></rect> <rect x="173.615" y="227.435" style="fill:#FFC61B;" width="31.434" height="21.175"></rect> <rect x="125.931" y="258.948" style="fill:#FEE187;" width="31.434" height="21.175"></rect> <rect x="173.615" y="258.948" style="fill:#FFC61B;" width="31.434" height="21.175"></rect> <rect x="125.931" y="290.444" style="fill:#FEE187;" width="31.434" height="21.175"></rect> <rect x="173.615" y="290.444" style="fill:#FFC61B;" width="31.434" height="21.175"></rect> <rect x="237.709" y="341.333" style="fill:#C92F00;" width="56.889" height="56.889"></rect> <rect x="264.051" y="341.333" style="fill:#930000;" width="30.546" height="56.889"></rect> <rect x="143.084" y="341.333" style="fill:#FFC61B;" width="44.822" height="56.889"></rect> <rect x="164.926" y="341.333" style="fill:#EAA22F;" width="22.985" height="56.889"></rect> <path style="fill:#FF5419;" d="M412.444,415.03H99.556c-7.854,0-14.222-6.368-14.222-14.222l0,0c0-7.854,6.368-14.222,14.222-14.222 h312.889c7.854,0,14.222,6.368,14.222,14.222l0,0C426.667,408.662,420.299,415.03,412.444,415.03z"></path> <path style="fill:#C92F00;" d="M412.444,386.586H256.288v28.444h156.157c7.854,0,14.222-6.368,14.222-14.222 C426.667,392.954,420.299,386.586,412.444,386.586z"></path> </g></svg>