<svg fill="#000000" width="101px" height="101px" viewBox="0 0 24 24" id="vr-glasses" data-name="Flat Color" xmlns="http://www.w3.org/2000/svg" class="icon flat-color"><g id="SVGRepo_bgCarrier" stroke-width="0"></g><g id="SVGRepo_tracerCarrier" stroke-linecap="round" stroke-linejoin="round"></g><g id="SVGRepo_iconCarrier"><path id="secondary" d="M22,12.5v3a1,1,0,0,1-.76,1l-2,.5A1,1,0,0,1,19,17a1,1,0,0,1-1-1V12a1,1,0,0,1,.38-.79,1,1,0,0,1,.86-.18l2,.5A1,1,0,0,1,22,12.5ZM4.76,11l-2,.5a1,1,0,0,0-.76,1v3a1,1,0,0,0,.76,1l2,.5A1,1,0,0,0,5,17a1,1,0,0,0,1-1V12a1,1,0,0,0-1.24-1Zm13-.41A1,1,0,0,1,17,11H7a1,1,0,0,1-.79-.38A1,1,0,0,1,6,9.76l.24-1A5,5,0,0,1,11.12,5h1.76a5,5,0,0,1,4.85,3.79l.24,1A1,1,0,0,1,17.79,10.62ZM15.71,9a3,3,0,0,0-2.83-2H11.12A3,3,0,0,0,8.29,9Z" style="fill: #2ca9bc;"></path><path id="primary" d="M18,9H6a2,2,0,0,0-2,2v6a2,2,0,0,0,2,2H7.75a3.5,3.5,0,0,0,2.8-1.4,1.49,1.49,0,0,1,1.2-.6h.5a1.49,1.49,0,0,1,1.2.6,3.5,3.5,0,0,0,2.8,1.4H18a2,2,0,0,0,2-2V11A2,2,0,0,0,18,9Z" style="fill: #000000;"></path></g></svg>