<?xml version="1.0" encoding="iso-8859-1"?>
<!-- Generator: Adobe Illustrator 18.0.0, SVG Export Plug-In . SVG Version: 6.00 Build 0)  -->
<!DOCTYPE svg PUBLIC "-//W3C//DTD SVG 1.1//EN" "http://www.w3.org/Graphics/SVG/1.1/DTD/svg11.dtd">
<svg version="1.1" id="Capa_1" xmlns="http://www.w3.org/2000/svg" xmlns:xlink="http://www.w3.org/1999/xlink" x="0px" y="0px"
	 viewBox="0 0 410 410" style="enable-background:new 0 0 410 410;" fill="#fff" xml:space="preserve">
<path d="M205,0C91.962,0,0,91.963,0,205s91.962,205,205,205s205-91.963,205-205S318.038,0,205,0z M357.233,118.77h-45.946
	c-7.218-28.011-17.892-52.464-31.125-71.785C312.596,62.474,339.542,87.66,357.233,118.77z M286.871,164.4
	c-0.449-5.806-2.674-11.218-6.16-15.631h6.318c3.099,17.878,4.71,36.801,4.71,56.23c0,7.263-0.226,14.455-0.67,21.548
	l-29.586-29.587l8.997-4.271C281.202,187.597,287.788,176.227,286.871,164.4z M220,32.897c15.95,6.11,31.333,21.705,43.717,44.833
	c6.583,12.292,12.082,26.109,16.421,41.039H220V32.897z M146.283,77.73C158.667,54.603,174.05,39.008,190,32.897v83.363
	l-53.871-16.024c-0.013-0.004-0.026-0.006-0.039-0.01C139.129,92.286,142.522,84.752,146.283,77.73z M129.837,46.984
	c-13.233,19.321-23.907,43.774-31.125,71.785H52.767C70.457,87.66,97.404,62.474,129.837,46.984z M118.357,197.047l19.092,64.184
	h-14.479c-3.099-17.878-4.71-36.801-4.71-56.23C118.26,202.338,118.297,199.689,118.357,197.047z M30,205
	c0-19.661,3.261-38.575,9.268-56.23H92.54c-2.79,17.808-4.28,36.657-4.28,56.23c0,19.573,1.49,38.423,4.28,56.23H39.268
	C33.261,243.575,30,224.661,30,205z M52.767,291.23h45.946c7.218,28.011,17.892,52.464,31.125,71.785
	C97.404,347.526,70.457,322.34,52.767,291.23z M190,377.103c-15.95-6.11-31.333-21.705-43.717-44.833
	c-6.583-12.292-12.081-26.109-16.421-41.039H190V377.103z M191.053,227.292l-16.428,34.606c-1.572,3.311-5.024,5.315-8.683,5.032
	c-3.656-0.282-6.76-2.789-7.806-6.304l-38.733-130.211c-0.928-3.116-0.072-6.489,2.226-8.788c2.298-2.298,5.671-3.153,8.788-2.225
	l130.21,38.732c3.515,1.046,6.021,4.15,6.304,7.807c0.284,3.658-1.718,7.108-5.032,8.683l-34.607,16.428l61.081,61.081
	c3.458,3.458,3.458,9.065,0,12.524l-23.714,23.714c-3.458,3.458-9.066,3.458-12.524,0L191.053,227.292z M263.717,332.27
	c-12.384,23.128-27.768,38.723-43.717,44.833V291.23h6.708l11.284,11.284c5.45,5.449,12.696,8.451,20.404,8.451
	c6.267,0,12.228-1.984,17.168-5.655C272.124,314.906,268.175,323.944,263.717,332.27z M280.163,363.016
	c13.233-19.321,23.907-43.774,31.125-71.785h45.946C339.542,322.34,312.596,347.526,280.163,363.016z M317.46,261.23
	c2.79-17.808,4.28-36.657,4.28-56.23c0-19.573-1.49-38.423-4.28-56.23h53.273C376.739,166.425,380,185.339,380,205
	s-3.261,38.575-9.268,56.23H317.46z"/>
<g>
</g>
<g>
</g>
<g>
</g>
<g>
</g>
<g>
</g>
<g>
</g>
<g>
</g>
<g>
</g>
<g>
</g>
<g>
</g>
<g>
</g>
<g>
</g>
<g>
</g>
<g>
</g>
<g>
</g>
</svg>
